# Blender v2.83.0 OBJ File: 'fish.blend'
# www.blender.org
mtllib fishtail.mtl
o Cube.001_Cube.003
v -0.685911 0.121032 0.093008
v -0.685911 -0.407027 0.093008
v -1.355581 0.008165 0.063008
v -1.355581 -0.263074 0.063008
v -1.181798 -0.009032 0.073008
v -1.181798 -0.261964 0.073008
v -1.355581 -0.130091 0.063008
v -0.685911 -0.130091 0.093008
v -1.181798 -0.130091 0.073008
v -0.942460 -0.278002 0.083008
v -0.942460 0.020974 0.083008
v -0.942460 -0.130091 0.083008
v -0.685911 0.221032 0.000000
v -0.685911 -0.507027 0.000000
v -0.685911 0.121032 -0.093008
v -0.685911 -0.407027 -0.093008
v -1.355581 0.108165 0.000000
v -1.355581 -0.363074 0.000000
v -1.355581 0.008165 -0.063008
v -1.355581 -0.263074 -0.063008
v -1.181798 -0.361964 0.000000
v -1.181798 -0.009032 -0.073008
v -1.181798 -0.261964 -0.073008
v -1.181798 0.090968 0.000000
v -0.685911 -0.130091 0.000000
v -1.355581 -0.130091 -0.063008
v -0.685911 -0.130091 -0.093008
v -1.355581 -0.130091 0.000000
v -1.181798 -0.130091 -0.073008
v -0.942460 -0.278002 -0.083008
v -0.942460 0.120974 0.000000
v -0.942460 -0.378002 0.000000
v -0.942460 0.020974 -0.083008
v -0.942460 -0.130091 -0.083008
vt 0.500000 0.000000
vt 0.625000 0.000000
vt 0.625000 0.250000
vt 0.500000 0.250000
vt 0.312500 0.500000
vt 0.375000 0.500000
vt 0.375000 0.750000
vt 0.312500 0.750000
vt 0.500000 0.500000
vt 0.625000 0.500000
vt 0.625000 0.750000
vt 0.500000 0.750000
vt 0.187500 0.500000
vt 0.250000 0.500000
vt 0.250000 0.750000
vt 0.187500 0.750000
vt 0.500000 0.812500
vt 0.625000 0.812500
vt 0.625000 0.875000
vt 0.500000 0.875000
vt 0.687500 0.500000
vt 0.750000 0.500000
vt 0.750000 0.750000
vt 0.687500 0.750000
vt 0.375000 0.812500
vt 0.375000 0.875000
vt 0.375000 0.000000
vt 0.375000 0.250000
vt 0.500000 0.937500
vt 0.375000 0.937500
vt 0.625000 0.937500
vt 0.812500 0.500000
vt 0.812500 0.750000
vt 0.500000 0.000000
vt 0.625000 0.000000
vt 0.312500 0.750000
vt 0.375000 0.750000
vt 0.500000 0.750000
vt 0.625000 0.750000
vt 0.187500 0.750000
vt 0.250000 0.750000
vt 0.500000 0.812500
vt 0.500000 0.875000
vt 0.625000 0.875000
vt 0.625000 0.812500
vt 0.687500 0.750000
vt 0.750000 0.750000
vt 0.375000 0.812500
vt 0.375000 0.875000
vt 0.375000 0.000000
vt 0.375000 0.937500
vt 0.500000 0.937500
vt 0.625000 0.937500
vt 0.812500 0.750000
vn -1.0000 0.0000 0.0000
vn -0.3277 -0.6242 0.7092
vn 1.0000 0.0000 0.0000
vn -0.0202 -0.5622 0.8267
vn -0.0417 0.0000 0.9991
vn -0.0932 0.6124 0.7850
vn -0.0389 0.0000 0.9992
vn -0.2627 0.6375 0.7243
vn -0.0576 -0.6141 0.7872
vn -0.0574 0.0000 0.9983
vn 0.0318 0.5621 0.8265
vn -0.3277 -0.6242 -0.7092
vn -0.0202 -0.5622 -0.8267
vn -0.0417 0.0000 -0.9991
vn -0.0932 0.6124 -0.7850
vn -0.0389 0.0000 -0.9992
vn -0.2627 0.6375 -0.7243
vn -0.0576 -0.6141 -0.7872
vn -0.0574 0.0000 -0.9983
vn 0.0318 0.5621 -0.8265
usemtl Material
s off
f 7/1/1 3/2/1 17/3/1 28/4/1
f 32/5/2 14/6/2 2/7/2 10/8/2
f 25/9/3 13/10/3 1/11/3 8/12/3
f 18/13/4 21/14/4 6/15/4 4/16/4
f 12/17/5 11/18/5 5/19/5 9/20/5
f 31/21/6 24/22/6 5/23/6 11/24/6
f 10/25/5 12/17/5 9/20/5 6/26/5
f 14/6/3 25/9/3 8/12/3 2/7/3
f 4/27/1 7/1/1 28/4/1 18/28/1
f 2/7/7 8/12/7 12/17/7 10/25/7
f 13/10/8 31/21/8 11/24/8 1/11/8
f 8/12/7 1/11/7 11/18/7 12/17/7
f 21/14/9 32/5/9 10/8/9 6/15/9
f 6/26/10 9/20/10 7/29/10 4/30/10
f 9/20/10 5/19/10 3/31/10 7/29/10
f 24/22/11 17/32/11 3/33/11 5/23/11
f 26/34/1 28/4/1 17/3/1 19/35/1
f 32/5/12 30/36/12 16/37/12 14/6/12
f 25/9/3 27/38/3 15/39/3 13/10/3
f 18/13/13 20/40/13 23/41/13 21/14/13
f 34/42/14 29/43/14 22/44/14 33/45/14
f 31/21/15 33/46/15 22/47/15 24/22/15
f 30/48/14 23/49/14 29/43/14 34/42/14
f 14/6/3 16/37/3 27/38/3 25/9/3
f 20/50/1 18/28/1 28/4/1 26/34/1
f 16/37/16 30/48/16 34/42/16 27/38/16
f 13/10/17 15/39/17 33/46/17 31/21/17
f 27/38/16 34/42/16 33/45/16 15/39/16
f 21/14/18 23/41/18 30/36/18 32/5/18
f 23/49/19 20/51/19 26/52/19 29/43/19
f 29/43/19 26/52/19 19/53/19 22/44/19
f 24/22/20 22/47/20 19/54/20 17/32/20
