# Blender v2.83.0 OBJ File: 'fishtexture.blend'
# www.blender.org
mtllib fishtexturetail.mtl
o Cube.001_Cube.003
v -1.355581 -0.130091 0.063008
v -1.355581 0.008165 0.063008
v -1.355581 0.108165 0.000000
v -1.355581 -0.130091 -0.000000
v -0.942460 -0.378002 -0.000000
v -0.685911 -0.507027 -0.000000
v -0.685911 -0.407027 0.093008
v -0.942460 -0.278002 0.083008
v -0.685911 -0.130091 -0.000000
v -0.685911 0.221032 0.000000
v -0.685911 0.121032 0.093008
v -0.685911 -0.130091 0.093008
v -1.355581 -0.363074 -0.000000
v -1.181798 -0.361964 -0.000000
v -1.181798 -0.261964 0.073008
v -1.355581 -0.263074 0.063008
v -0.942460 -0.130091 0.083008
v -0.942460 0.020974 0.083008
v -1.181798 -0.009032 0.073008
v -1.181798 -0.130091 0.073008
v -0.942460 0.120974 0.000000
v -1.181798 0.090968 0.000000
v -1.355581 -0.130091 -0.063008
v -1.355581 0.008165 -0.063008
v -0.942460 -0.278002 -0.083008
v -0.685911 -0.407027 -0.093008
v -0.685911 -0.130091 -0.093008
v -0.685911 0.121032 -0.093008
v -1.355581 -0.263074 -0.063008
v -1.181798 -0.261964 -0.073008
v -0.942460 -0.130091 -0.083008
v -1.181798 -0.130091 -0.073008
v -1.181798 -0.009032 -0.073008
v -0.942460 0.020974 -0.083008
vt 0.465154 0.159526
vt 0.445820 0.085928
vt 0.456940 0.017703
vt 0.505459 0.151006
vt 0.255970 0.383287
vt 0.092064 0.451537
vt 0.109673 0.375726
vt 0.239114 0.301198
vt 0.014683 0.256649
vt 0.008277 0.058679
vt 0.055159 0.120689
vt 0.072326 0.244723
vt 0.514606 0.289807
vt 0.408367 0.335442
vt 0.382429 0.258604
vt 0.477033 0.232116
vt 0.220430 0.212785
vt 0.199978 0.123263
vt 0.349915 0.109016
vt 0.364789 0.180971
vt 0.180639 0.041132
vt 0.341337 0.028210
vt 0.465154 0.159526
vt 0.445820 0.085928
vt 0.239114 0.301198
vt 0.109673 0.375726
vt 0.072326 0.244723
vt 0.055159 0.120689
vt 0.477033 0.232116
vt 0.382429 0.258604
vt 0.220430 0.212785
vt 0.364789 0.180971
vt 0.349915 0.109016
vt 0.199978 0.123263
vn -1.0000 -0.0000 0.0000
vn -0.3277 -0.6242 0.7092
vn 1.0000 -0.0000 0.0000
vn -0.0202 -0.5622 0.8267
vn -0.0403 -0.0000 0.9992
vn -0.0415 -0.0000 0.9991
vn -0.0417 -0.0000 0.9991
vn -0.0932 0.6124 0.7850
vn -0.0389 -0.0000 0.9992
vn -0.2627 0.6375 0.7243
vn -0.0576 -0.6141 0.7872
vn -0.0574 -0.0000 0.9983
vn 0.0318 0.5621 0.8265
vn -0.3277 -0.6242 -0.7092
vn -0.0202 -0.5622 -0.8267
vn -0.0403 0.0000 -0.9992
vn -0.0417 0.0000 -0.9991
vn -0.0415 0.0000 -0.9991
vn -0.0932 0.6124 -0.7850
vn -0.0389 0.0000 -0.9992
vn -0.2627 0.6375 -0.7243
vn -0.0576 -0.6140 -0.7872
vn -0.0574 0.0000 -0.9983
vn 0.0318 0.5621 -0.8265
usemtl Material.001
s 1
f 1/1/1 2/2/1 3/3/1 4/4/1
f 5/5/2 6/6/2 7/7/2 8/8/2
f 9/9/3 10/10/3 11/11/3 12/12/3
f 13/13/4 14/14/4 15/15/4 16/16/4
f 17/17/5 18/18/6 19/19/7 20/20/7
f 21/21/8 22/22/8 19/19/8 18/18/8
f 8/8/6 17/17/5 20/20/7 15/15/7
f 6/6/3 9/9/3 12/12/3 7/7/3
f 16/16/1 1/1/1 4/4/1 13/13/1
f 7/7/9 12/12/9 17/17/5 8/8/6
f 10/10/10 21/21/10 18/18/10 11/11/10
f 12/12/9 11/11/9 18/18/6 17/17/5
f 14/14/11 5/5/11 8/8/11 15/15/11
f 15/15/12 20/20/12 1/1/12 16/16/12
f 20/20/12 19/19/12 2/2/12 1/1/12
f 22/22/13 3/3/13 2/2/13 19/19/13
f 23/23/1 4/4/1 3/3/1 24/24/1
f 5/5/14 25/25/14 26/26/14 6/6/14
f 9/9/3 27/27/3 28/28/3 10/10/3
f 13/13/15 29/29/15 30/30/15 14/14/15
f 31/31/16 32/32/17 33/33/17 34/34/18
f 21/21/19 34/34/19 33/33/19 22/22/19
f 25/25/18 30/30/17 32/32/17 31/31/16
f 6/6/3 26/26/3 27/27/3 9/9/3
f 29/29/1 13/13/1 4/4/1 23/23/1
f 26/26/20 25/25/18 31/31/16 27/27/20
f 10/10/21 28/28/21 34/34/21 21/21/21
f 27/27/20 31/31/16 34/34/18 28/28/20
f 14/14/22 30/30/22 25/25/22 5/5/22
f 30/30/23 29/29/23 23/23/23 32/32/23
f 32/32/23 23/23/23 24/24/23 33/33/23
f 22/22/24 33/33/24 24/24/24 3/3/24
