# Blender v2.83.0 OBJ File: ''
# www.blender.org
mtllib ReelTop.mtl
o Cylinder.005_Cylinder.009
v 0.000000 63.599991 -0.128000
v 0.000000 73.599991 -0.063000
v 0.048984 63.599991 -0.118257
v 0.024109 73.599991 -0.058204
v 0.090510 63.599991 -0.090510
v 0.044548 73.599991 -0.044548
v 0.118257 63.599991 -0.048983
v 0.058204 73.599991 -0.024109
v 0.128000 63.599991 0.000000
v 0.063000 73.599991 -0.000000
v 0.118257 63.599991 0.048984
v 0.058204 73.599991 0.024109
v 0.090510 63.599991 0.090510
v 0.044548 73.599991 0.044548
v 0.048984 63.599991 0.118257
v 0.024109 73.599991 0.058204
v 0.000000 63.599991 0.128000
v 0.000000 73.599991 0.063000
v -0.048983 63.599991 0.118257
v -0.024109 73.599991 0.058204
v -0.090510 63.599991 0.090510
v -0.044548 73.599991 0.044548
v -0.118257 63.599991 0.048984
v -0.058204 73.599991 0.024109
v -0.128000 63.599991 0.000000
v -0.063000 73.599991 -0.000000
v -0.118257 63.599991 -0.048983
v -0.058204 73.599991 -0.024109
v -0.090510 63.599991 -0.090510
v -0.044548 73.599991 -0.044548
v -0.048983 63.599991 -0.118257
v -0.024109 73.599991 -0.058204
v 0.060019 70.324028 -0.132288
v 0.110644 70.324028 -0.122219
v 0.153561 70.324028 -0.093542
v 0.182238 70.324028 -0.050625
v 0.192308 70.324028 0.000000
v 0.182238 70.324028 0.050625
v 0.153561 70.324028 0.093542
v 0.110644 70.324028 0.122219
v 0.060019 70.324028 0.132288
v 0.009395 70.324028 0.122219
v -0.033523 70.324028 0.093542
v -0.062199 70.324028 0.050625
v -0.072269 70.324028 -0.000000
v -0.062199 70.324028 -0.050625
v -0.033523 70.324028 -0.093542
v 0.009395 70.324028 -0.122219
v 0.060019 70.419548 -0.131333
v 0.110278 70.419548 -0.121336
v 0.152886 70.419548 -0.092867
v 0.181356 70.419548 -0.050259
v 0.191353 70.419548 0.000000
v 0.181356 70.419548 0.050259
v 0.152886 70.419548 0.092867
v 0.110278 70.419548 0.121336
v 0.060019 70.419548 0.131333
v 0.009760 70.419548 0.121336
v -0.032847 70.419548 0.092867
v -0.061317 70.419548 0.050259
v -0.071314 70.419548 -0.000000
v -0.061317 70.419548 -0.050259
v -0.032847 70.419548 -0.092867
v 0.009760 70.419548 -0.121336
v 0.346858 70.399506 -0.104481
v 0.306875 70.399506 -0.096528
v 0.272979 70.399506 -0.073879
v 0.272979 70.344063 -0.073879
v 0.306875 70.344063 -0.096528
v 0.346858 70.344063 -0.104481
v 0.272979 70.399506 0.073879
v 0.306875 70.399506 0.096528
v 0.346858 70.399506 0.104481
v 0.386841 70.399506 0.096528
v 0.420738 70.399506 0.073879
v 0.443386 70.399506 0.039983
v 0.451339 70.399506 -0.000000
v 0.443386 70.399506 -0.039983
v 0.420738 70.399506 -0.073879
v 0.386841 70.399506 -0.096528
v 0.272979 70.344063 0.073879
v 0.306875 70.344063 0.096528
v 0.346858 70.344063 0.104481
v 0.386841 70.344063 0.096528
v 0.420738 70.344063 0.073879
v 0.443386 70.344063 0.039983
v 0.451339 70.344063 -0.000000
v 0.443386 70.344063 -0.039983
v 0.420738 70.344063 -0.073879
v 0.386841 70.344063 -0.096528
v 0.333780 70.415344 -0.164184
v 0.270949 70.415344 -0.151687
v 0.178594 70.410995 -0.104486
v 0.178594 70.332581 -0.104486
v 0.270949 70.328224 -0.151687
v 0.333780 70.328224 -0.164184
v 0.178594 70.410995 0.104486
v 0.270949 70.415344 0.151687
v 0.333780 70.415344 0.164184
v 0.396610 70.415344 0.151687
v 0.449876 70.415344 0.116096
v 0.485466 70.415344 0.062831
v 0.497964 70.415344 -0.000000
v 0.485466 70.415344 -0.062831
v 0.449876 70.415344 -0.116096
v 0.396610 70.415344 -0.151687
v 0.178594 70.332581 0.104486
v 0.270949 70.328224 0.151687
v 0.333780 70.328224 0.164184
v 0.396610 70.328224 0.151687
v 0.449876 70.328224 0.116096
v 0.485466 70.328224 0.062831
v 0.497964 70.328224 -0.000000
v 0.485466 70.328224 -0.062831
v 0.449876 70.328224 -0.116096
v 0.396610 70.328224 -0.151687
v -0.000000 73.629997 -0.032000
v -0.012246 73.629997 -0.029564
v -0.022627 73.629997 -0.022627
v -0.029564 73.629997 -0.012246
v -0.032000 73.629997 0.000000
v -0.029564 73.629997 0.012246
v -0.022627 73.629997 0.022627
v -0.012246 73.629997 0.029564
v -0.000000 73.629997 0.032000
v 0.012246 73.629997 0.029564
v 0.022627 73.629997 0.022627
v 0.029564 73.629997 0.012246
v 0.032000 73.629997 0.000000
v 0.029564 73.629997 -0.012246
v 0.022627 73.629997 -0.022627
v 0.012246 73.629997 -0.029564
v -0.000000 73.639999 0.000000
vt 1.000000 0.851854
vt 1.000000 1.000000
vt 0.937500 1.000000
vt 0.937500 0.851854
vt 0.875000 1.000000
vt 0.875000 0.851854
vt 0.812500 1.000000
vt 0.812500 0.851854
vt 0.750000 1.000000
vt 0.750000 0.851854
vt 0.687500 1.000000
vt 0.687500 0.851854
vt 0.625000 1.000000
vt 0.625000 0.851854
vt 0.562500 1.000000
vt 0.562500 0.851854
vt 0.500000 1.000000
vt 0.500000 0.851854
vt 0.437500 1.000000
vt 0.437500 0.851854
vt 0.375000 1.000000
vt 0.375000 0.851854
vt 0.312500 1.000000
vt 0.312500 0.851854
vt 0.250000 1.000000
vt 0.250000 0.851854
vt 0.187500 1.000000
vt 0.187500 0.851854
vt 0.125000 1.000000
vt 0.125000 0.851854
vt 0.062500 1.000000
vt 0.062500 0.851854
vt 0.000000 1.000000
vt 0.000000 0.851854
vt 0.750000 0.490000
vt 0.841844 0.471731
vt 0.919706 0.419706
vt 0.971731 0.341844
vt 0.990000 0.250000
vt 0.971731 0.158156
vt 0.919706 0.080294
vt 0.841844 0.028269
vt 0.750000 0.010000
vt 0.658156 0.028269
vt 0.580294 0.080294
vt 0.528269 0.158156
vt 0.510000 0.250000
vt 0.528269 0.341844
vt 0.580294 0.419706
vt 0.658156 0.471731
vt 0.062500 0.500000
vt 0.062500 0.825322
vt 0.000000 0.825322
vt 0.000000 0.500000
vt 0.125000 0.500000
vt 0.125000 0.825322
vt 0.187500 0.500000
vt 0.187500 0.825322
vt 0.250000 0.500000
vt 0.250000 0.825322
vt 0.312500 0.500000
vt 0.312500 0.825322
vt 0.375000 0.500000
vt 0.375000 0.825322
vt 0.437500 0.500000
vt 0.437500 0.825322
vt 0.500000 0.500000
vt 0.500000 0.825322
vt 0.562500 0.500000
vt 0.562500 0.825322
vt 0.625000 0.500000
vt 0.625000 0.825322
vt 0.687500 0.500000
vt 0.687500 0.825322
vt 0.750000 0.500000
vt 0.750000 0.825322
vt 0.812500 0.500000
vt 0.812500 0.825322
vt 0.875000 0.500000
vt 0.875000 0.825322
vt 0.937500 0.500000
vt 0.937500 0.825322
vt 1.000000 0.500000
vt 1.000000 0.825322
vt 0.000000 0.000000
vt 0.000000 0.000000
vt 0.000000 0.000000
vt 0.000000 0.000000
vt 0.000000 0.000000
vt 0.000000 0.000000
vt 0.000000 0.000000
vt 0.000000 0.000000
vt 0.000000 0.000000
vt 0.000000 0.000000
vt 0.000000 0.000000
vt 0.000000 0.000000
vt 0.000000 0.000000
vt 0.000000 0.000000
vt 0.000000 0.000000
vt 0.000000 0.000000
vt 0.000000 0.000000
vt 0.000000 0.000000
vt 0.000000 0.000000
vt 0.000000 0.000000
vt 0.000000 0.000000
vt 0.000000 0.000000
vt 0.000000 0.000000
vt 0.000000 0.000000
vt 0.000000 0.000000
vt 0.000000 0.000000
vt 0.000000 0.000000
vt 0.000000 0.000000
vt 0.000000 0.000000
vt 0.000000 0.000000
vt 0.000000 0.000000
vt 0.000000 0.000000
vt 0.000000 0.000000
vt 0.000000 0.000000
vt 0.000000 0.000000
vt 0.000000 0.000000
vt 0.000000 0.000000
vt 0.000000 0.000000
vt 0.000000 0.000000
vt 0.000000 0.000000
vt 0.000000 0.000000
vt 0.000000 0.000000
vt 0.000000 0.000000
vt 0.000000 0.000000
vt 0.000000 0.000000
vt 0.000000 0.000000
vt 0.000000 0.000000
vt 0.000000 0.000000
vt 0.000000 0.000000
vt 0.000000 0.000000
vt 0.000000 0.000000
vt 0.000000 0.000000
vt 0.000000 0.000000
vt 0.000000 0.000000
vt 0.000000 0.000000
vt 0.000000 0.000000
vt 0.000000 0.000000
vt 0.000000 0.000000
vt 0.000000 0.000000
vt 0.000000 0.000000
vt 0.000000 0.000000
vt 0.000000 0.000000
vt 0.000000 0.000000
vt 0.000000 0.000000
vt 0.000000 0.000000
vt 0.000000 0.000000
vt 0.000000 0.000000
vt 0.000000 0.000000
vt 0.000000 0.000000
vn 0.1950 0.0247 -0.9805
vn 0.5553 0.0315 -0.8311
vn 0.8309 0.0367 -0.5552
vn 0.9800 0.0396 -0.1949
vn 0.9800 0.0396 0.1949
vn 0.8309 0.0367 0.5552
vn 0.5553 0.0315 0.8311
vn 0.1950 0.0247 0.9805
vn -0.1951 0.0174 0.9806
vn -0.5555 0.0106 0.8314
vn -0.8315 0.0054 0.5556
vn -0.9808 0.0026 0.1951
vn -0.9808 0.0026 -0.1951
vn -0.8315 0.0054 -0.5556
vn -0.5555 0.0106 -0.8314
vn -0.1951 0.0174 -0.9806
vn 0.0000 -1.0000 -0.0000
vn -0.1951 0.0011 -0.9808
vn -0.5556 0.0043 -0.8315
vn -0.8315 0.0068 -0.5556
vn -0.9808 0.0081 -0.1951
vn -0.9808 0.0081 0.1951
vn -0.8315 0.0068 0.5556
vn -0.5556 0.0043 0.8315
vn -0.1951 0.0011 0.9808
vn 0.1951 -0.0024 0.9808
vn 0.5556 -0.0056 0.8315
vn 0.8314 -0.0080 0.5556
vn 0.9807 -0.0094 0.1951
vn 0.9807 -0.0094 -0.1951
vn 0.8314 -0.0080 -0.5556
vn 0.5556 -0.0056 -0.8315
vn 0.1951 -0.0024 -0.9808
vn -0.1951 0.0098 -0.9807
vn -0.5555 0.0098 -0.8314
vn -0.8314 0.0098 -0.5556
vn -0.9807 0.0098 -0.1951
vn -0.9807 0.0098 0.1951
vn -0.8314 0.0098 0.5555
vn -0.5555 0.0098 0.8314
vn -0.1951 0.0098 0.9807
vn 0.1951 0.0098 0.9807
vn 0.5555 0.0098 0.8314
vn 0.5555 0.0098 -0.8314
vn 0.1951 0.0098 -0.9807
vn -0.0531 0.9623 -0.2668
vn -0.0531 0.9623 0.2668
vn 0.0490 0.9681 0.2459
vn -0.3210 -0.9449 0.0639
vn 0.0489 0.9680 -0.2460
vn -0.1639 0.9555 0.2453
vn -0.3210 -0.9449 -0.0639
vn 0.0753 0.9775 -0.1970
vn -0.2621 0.9490 0.1752
vn -0.2621 -0.9490 -0.1750
vn -0.3210 0.9449 0.0638
vn 0.9807 0.0098 0.1951
vn 0.9807 0.0098 -0.1951
vn 0.5556 0.0000 0.8315
vn -0.4551 0.0000 0.8905
vn 0.8315 0.0000 -0.5556
vn 0.8315 0.0000 0.5556
vn -0.1951 0.0000 -0.9808
vn -0.1951 0.0000 0.9808
vn 0.5556 0.0000 -0.8315
vn 0.9808 0.0000 0.1951
vn -0.4551 0.0000 -0.8905
vn 0.1951 0.0000 0.9808
vn 0.1951 0.0000 -0.9808
vn 0.9808 0.0000 -0.1951
vn -0.2621 -0.9490 0.1751
vn 0.0753 0.9775 0.1970
vn 0.0753 -0.9775 -0.1970
vn -0.1639 0.9555 -0.2454
vn -0.1639 -0.9555 0.2454
vn 0.0753 -0.9775 0.1970
vn 0.0489 -0.9680 -0.2461
vn -0.2621 0.9490 -0.1751
vn -0.0531 -0.9623 0.2668
vn 0.0489 -0.9680 0.2461
vn -0.0531 -0.9623 -0.2668
vn -0.3210 0.9449 -0.0638
vn -0.1639 -0.9555 -0.2454
vn -0.4064 0.0020 -0.9137
vn 0.2489 -0.0009 0.9685
vn 0.1873 0.9688 -0.1625
vn 0.1898 -0.9676 -0.1664
vn -0.4064 0.0020 0.9137
vn 0.2489 -0.0009 -0.9685
vn 0.1873 0.9687 0.1626
vn 0.1898 -0.9676 0.1664
vn -0.5556 0.0000 -0.8315
vn -0.8315 0.0000 -0.5555
vn -0.9808 0.0000 -0.1951
vn -0.9808 0.0000 0.1951
vn -0.8315 0.0000 0.5556
vn -0.5556 0.0000 0.8315
vn -0.6890 0.7118 -0.1369
vn -0.5841 0.7118 -0.3902
vn -0.3903 0.7118 -0.5839
vn -0.1370 0.7118 -0.6889
vn 0.1370 0.7118 -0.6889
vn 0.3902 0.7117 -0.5841
vn 0.5841 0.7118 -0.3901
vn 0.6889 0.7117 -0.1373
vn 0.6889 0.7118 0.1370
vn 0.5841 0.7118 0.3901
vn 0.3902 0.7117 0.5841
vn 0.1370 0.7117 0.6889
vn -0.1370 0.7118 0.6889
vn -0.3902 0.7117 0.5841
vn -0.5841 0.7118 0.3902
vn -0.6889 0.7117 0.1370
vn 0.0592 0.9528 -0.2977
vn 0.1687 0.9529 -0.2519
vn 0.2524 0.9527 -0.1693
vn 0.2978 0.9529 -0.0580
vn 0.2978 0.9528 0.0591
vn 0.2524 0.9527 0.1693
vn 0.1687 0.9530 0.2516
vn 0.0592 0.9527 0.2979
vn -0.0592 0.9529 0.2974
vn -0.1687 0.9527 0.2527
vn -0.2525 0.9528 0.1687
vn -0.2978 0.9529 0.0580
vn -0.2978 0.9529 -0.0580
vn -0.2524 0.9527 -0.1693
vn -0.1687 0.9527 -0.2527
vn -0.0592 0.9529 -0.2974
usemtl None
s off
f 49/1/1 2/2/1 4/3/1 50/4/1
f 50/4/2 4/3/2 6/5/2 51/6/2
f 51/6/3 6/5/3 8/7/3 52/8/3
f 52/8/4 8/7/4 10/9/4 53/10/4
f 53/10/5 10/9/5 12/11/5 54/12/5
f 54/12/6 12/11/6 14/13/6 55/14/6
f 55/14/7 14/13/7 16/15/7 56/16/7
f 56/16/8 16/15/8 18/17/8 57/18/8
f 57/18/9 18/17/9 20/19/9 58/20/9
f 58/20/10 20/19/10 22/21/10 59/22/10
f 59/22/11 22/21/11 24/23/11 60/24/11
f 60/24/12 24/23/12 26/25/12 61/26/12
f 61/26/13 26/25/13 28/27/13 62/28/13
f 62/28/14 28/27/14 30/29/14 63/30/14
f 63/30/15 30/29/15 32/31/15 64/32/15
f 64/32/16 32/31/16 2/33/16 49/34/16
f 1/35/17 3/36/17 5/37/17 7/38/17 9/39/17 11/40/17 13/41/17 15/42/17 17/43/17 19/44/17 21/45/17 23/46/17 25/47/17 27/48/17 29/49/17 31/50/17
f 31/51/18 48/52/18 33/53/18 1/54/18
f 29/55/19 47/56/19 48/52/19 31/51/19
f 27/57/20 46/58/20 47/56/20 29/55/20
f 25/59/21 45/60/21 46/58/21 27/57/21
f 23/61/22 44/62/22 45/60/22 25/59/22
f 21/63/23 43/64/23 44/62/23 23/61/23
f 19/65/24 42/66/24 43/64/24 21/63/24
f 17/67/25 41/68/25 42/66/25 19/65/25
f 15/69/26 40/70/26 41/68/26 17/67/26
f 13/71/27 39/72/27 40/70/27 15/69/27
f 11/73/28 38/74/28 39/72/28 13/71/28
f 9/75/29 37/76/29 38/74/29 11/73/29
f 7/77/30 36/78/30 37/76/30 9/75/30
f 5/79/31 35/80/31 36/78/31 7/77/31
f 3/81/32 34/82/32 35/80/32 5/79/32
f 1/83/33 33/84/33 34/82/33 3/81/33
f 48/52/34 64/32/34 49/34/34 33/53/34
f 47/56/35 63/30/35 64/32/35 48/52/35
f 46/58/36 62/28/36 63/30/36 47/56/36
f 45/60/37 61/26/37 62/28/37 46/58/37
f 44/62/38 60/24/38 61/26/38 45/60/38
f 43/64/39 59/22/39 60/24/39 44/62/39
f 42/66/40 58/20/40 59/22/40 43/64/40
f 41/68/41 57/18/41 58/20/41 42/66/41
f 40/70/42 56/16/42 57/18/42 41/68/42
f 39/72/43 55/14/43 56/16/43 40/70/43
f 34/82/44 50/4/44 51/6/44 35/80/44
f 33/84/45 49/1/45 50/4/45 34/82/45
f 74/85/46 73/86/46 99/87/46 100/88/46
f 65/89/47 80/90/47 106/91/47 91/92/47
f 66/93/48 65/89/48 91/92/48 92/94/48
f 87/95/49 88/96/49 114/97/49 113/98/49
f 73/86/50 72/99/50 98/100/50 99/87/50
f 80/90/51 79/101/51 105/102/51 106/91/51
f 86/103/52 87/95/52 113/98/52 112/104/52
f 72/99/53 71/105/53 97/106/53 98/100/53
f 79/101/54 78/107/54 104/108/54 105/102/54
f 85/109/55 86/103/55 112/104/55 111/110/55
f 78/107/56 77/111/56 103/112/56 104/108/56
f 38/74/57 37/76/57 53/10/57 54/12/57
f 37/76/58 36/78/58 52/8/58 53/10/58
f 101/113/59 100/88/59 110/114/59 111/110/59
f 98/100/60 97/106/60 107/115/60 108/116/60
f 105/102/61 104/108/61 114/97/61 115/117/61
f 102/118/62 101/113/62 111/110/62 112/104/62
f 92/94/63 91/92/63 96/119/63 95/120/63
f 99/87/64 98/100/64 108/116/64 109/121/64
f 106/91/65 105/102/65 115/117/65 116/122/65
f 103/112/66 102/118/66 112/104/66 113/98/66
f 93/123/67 92/94/67 95/120/67 94/124/67
f 100/88/68 99/87/68 109/121/68 110/114/68
f 91/92/69 106/91/69 116/122/69 96/119/69
f 104/108/70 103/112/70 113/98/70 114/97/70
f 88/96/71 89/125/71 115/117/71 114/97/71
f 67/126/72 66/93/72 92/94/72 93/123/72
f 81/127/73 82/128/73 108/116/73 107/115/73
f 75/129/74 74/85/74 100/88/74 101/113/74
f 89/125/75 90/130/75 116/122/75 115/117/75
f 69/131/76 68/132/76 94/124/76 95/120/76
f 82/128/77 83/133/77 109/121/77 108/116/77
f 76/134/78 75/129/78 101/113/78 102/118/78
f 90/130/79 70/135/79 96/119/79 116/122/79
f 70/135/80 69/131/80 95/120/80 96/119/80
f 83/133/81 84/136/81 110/114/81 109/121/81
f 77/111/82 76/134/82 102/118/82 103/112/82
f 84/136/83 85/109/83 111/110/83 110/114/83
f 51/6/84 93/123/84 94/124/84 35/80/84
f 52/8/85 36/78/85 68/132/85 67/126/85
f 51/6/86 52/8/86 67/126/86 93/123/86
f 36/78/87 35/80/87 94/124/87 68/132/87
f 39/72/88 107/115/88 97/106/88 55/14/88
f 71/105/65 72/99/65 82/128/65 81/127/65
f 38/74/89 54/12/89 71/105/89 81/127/89
f 54/12/90 55/14/90 97/106/90 71/105/90
f 39/72/91 38/74/91 81/127/91 107/115/91
f 72/99/69 73/86/69 83/133/69 82/128/69
f 73/86/63 74/85/63 84/136/63 83/133/63
f 74/85/92 75/129/92 85/109/92 84/136/92
f 75/129/93 76/134/93 86/103/93 85/109/93
f 76/134/94 77/111/94 87/95/94 86/103/94
f 77/111/95 78/107/95 88/96/95 87/95/95
f 78/107/96 79/101/96 89/125/96 88/96/96
f 79/101/97 80/90/97 90/130/97 89/125/97
f 80/90/64 65/89/64 70/135/64 90/130/64
f 65/89/68 66/93/68 69/131/68 70/135/68
f 66/93/59 67/126/59 68/132/59 69/131/59
f 28/27/98 26/25/98 121/137/98 120/138/98
f 30/29/99 28/27/99 120/138/99 119/139/99
f 32/31/100 30/29/100 119/139/100 118/140/100
f 2/33/101 32/31/101 118/140/101 117/141/101
f 4/3/102 2/33/102 117/141/102 132/142/102
f 6/5/103 4/3/103 132/142/103 131/143/103
f 8/7/104 6/5/104 131/143/104 130/144/104
f 10/9/105 8/7/105 130/144/105 129/145/105
f 12/11/106 10/9/106 129/145/106 128/146/106
f 14/13/107 12/11/107 128/146/107 127/147/107
f 16/15/108 14/13/108 127/147/108 126/148/108
f 18/17/109 16/15/109 126/148/109 125/149/109
f 20/19/110 18/17/110 125/149/110 124/150/110
f 22/21/111 20/19/111 124/150/111 123/151/111
f 24/23/112 22/21/112 123/151/112 122/152/112
f 26/25/113 24/23/113 122/152/113 121/137/113
f 132/142/114 117/141/114 133/153/114
f 131/143/115 132/142/115 133/153/115
f 130/144/116 131/143/116 133/153/116
f 129/145/117 130/144/117 133/153/117
f 128/146/118 129/145/118 133/153/118
f 127/147/119 128/146/119 133/153/119
f 126/148/120 127/147/120 133/153/120
f 125/149/121 126/148/121 133/153/121
f 125/149/122 133/153/122 124/150/122
f 123/151/123 124/150/123 133/153/123
f 122/152/124 123/151/124 133/153/124
f 121/137/125 122/152/125 133/153/125
f 120/138/126 121/137/126 133/153/126
f 119/139/127 120/138/127 133/153/127
f 118/140/128 119/139/128 133/153/128
f 117/141/129 118/140/129 133/153/129
