# Blender v2.83.0 OBJ File: ''
# www.blender.org
mtllib Reel3.mtl
o Cylinder.002_Cylinder.006
v 0.000000 33.299999 -0.480000
v 0.000000 43.299995 -0.350000
v 0.183688 33.299999 -0.443462
v 0.133939 43.299995 -0.323358
v 0.339411 33.299999 -0.339411
v 0.247487 43.299995 -0.247487
v 0.443462 33.299999 -0.183688
v 0.323358 43.299995 -0.133939
v 0.480000 33.299999 0.000000
v 0.350000 43.299995 0.000000
v 0.443462 33.299999 0.183688
v 0.323358 43.299995 0.133939
v 0.339411 33.299999 0.339411
v 0.247487 43.299995 0.247487
v 0.183688 33.299999 0.443462
v 0.133939 43.299995 0.323358
v 0.000000 33.299999 0.480000
v 0.000000 43.299995 0.350000
v -0.183688 33.299999 0.443462
v -0.133939 43.299995 0.323358
v -0.339411 33.299999 0.339411
v -0.247487 43.299995 0.247487
v -0.443462 33.299999 0.183688
v -0.323358 43.299995 0.133939
v -0.480000 33.299999 -0.000000
v -0.350000 43.299995 -0.000000
v -0.443462 33.299999 -0.183688
v -0.323358 43.299995 -0.133939
v -0.339411 33.299999 -0.339411
v -0.247487 43.299995 -0.247487
v -0.183688 33.299999 -0.443462
v -0.133939 43.299995 -0.323358
v 0.029278 39.912571 -0.440961
v 0.198026 39.912571 -0.407395
v 0.341085 39.912571 -0.311807
v 0.436673 39.912571 -0.168749
v 0.470239 39.912571 0.000000
v 0.436673 39.912571 0.168749
v 0.341085 39.912571 0.311807
v 0.198026 39.912571 0.407395
v 0.029278 39.912571 0.440961
v -0.139471 39.912571 0.407395
v -0.282529 39.912571 0.311807
v -0.378117 39.912571 0.168749
v -0.411684 39.912571 -0.000000
v -0.378117 39.912571 -0.168749
v -0.282529 39.912571 -0.311807
v -0.139471 39.912571 -0.407395
v 0.029278 40.230953 -0.437778
v 0.196808 40.230953 -0.404454
v 0.338833 40.230953 -0.309555
v 0.433731 40.230953 -0.167530
v 0.467055 40.230953 0.000000
v 0.433731 40.230953 0.167530
v 0.338833 40.230953 0.309555
v 0.196808 40.230953 0.404454
v 0.029278 40.230953 0.437778
v -0.138252 40.230953 0.404454
v -0.280278 40.230953 0.309556
v -0.375176 40.230953 0.167530
v -0.408500 40.230953 -0.000000
v -0.375176 40.230953 -0.167530
v -0.280278 40.230953 -0.309556
v -0.138252 40.230953 -0.404454
v 0.875740 40.154926 -0.313443
v 0.755790 40.154926 -0.289584
v 0.654102 40.154926 -0.221638
v 0.654102 39.988602 -0.221638
v 0.755790 39.988602 -0.289584
v 0.875740 39.988602 -0.313443
v 0.654102 40.154926 0.221638
v 0.755790 40.154926 0.289584
v 0.875740 40.154926 0.313443
v 0.995689 40.154926 0.289584
v 1.097377 40.154926 0.221638
v 1.165323 40.154926 0.119949
v 1.189183 40.154926 -0.000000
v 1.165323 40.154926 -0.119949
v 1.097377 40.154926 -0.221638
v 0.995689 40.154926 -0.289584
v 0.654102 39.988602 0.221638
v 0.755790 39.988602 0.289584
v 0.875740 39.988602 0.313443
v 0.995689 39.988602 0.289584
v 1.097377 39.988602 0.221638
v 1.165323 39.988602 0.119949
v 1.189183 39.988602 -0.000000
v 1.165323 39.988602 -0.119949
v 1.097377 39.988602 -0.221638
v 0.995689 39.988602 -0.289584
v 0.836504 40.202446 -0.492553
v 0.648012 40.202446 -0.455060
v 0.424527 40.202446 -0.348288
v 0.424527 39.941078 -0.348288
v 0.648012 39.941078 -0.455060
v 0.836504 39.941078 -0.492553
v 0.424527 40.202446 0.348288
v 0.648012 40.202446 0.455060
v 0.836504 40.202446 0.492553
v 1.024996 40.202446 0.455060
v 1.184792 40.202446 0.348288
v 1.291564 40.202446 0.188492
v 1.329057 40.202446 -0.000000
v 1.291564 40.202446 -0.188492
v 1.184792 40.202446 -0.348288
v 1.024996 40.202446 -0.455060
v 0.424527 39.941078 0.348288
v 0.648012 39.941078 0.455060
v 0.836504 39.941078 0.492553
v 1.024996 39.941078 0.455060
v 1.184792 39.941078 0.348288
v 1.291564 39.941078 0.188492
v 1.329057 39.941078 -0.000000
v 1.291564 39.941078 -0.188492
v 1.184792 39.941078 -0.348288
v 1.024996 39.941078 -0.455060
vt 1.000000 0.851854
vt 1.000000 1.000000
vt 0.937500 1.000000
vt 0.937500 0.851854
vt 0.875000 1.000000
vt 0.875000 0.851854
vt 0.812500 1.000000
vt 0.812500 0.851854
vt 0.750000 1.000000
vt 0.750000 0.851854
vt 0.687500 1.000000
vt 0.687500 0.851854
vt 0.625000 1.000000
vt 0.625000 0.851854
vt 0.562500 1.000000
vt 0.562500 0.851854
vt 0.500000 1.000000
vt 0.500000 0.851854
vt 0.437500 1.000000
vt 0.437500 0.851854
vt 0.375000 1.000000
vt 0.375000 0.851854
vt 0.312500 1.000000
vt 0.312500 0.851854
vt 0.250000 1.000000
vt 0.250000 0.851854
vt 0.187500 1.000000
vt 0.187500 0.851854
vt 0.125000 1.000000
vt 0.125000 0.851854
vt 0.341844 0.471731
vt 0.250000 0.490000
vt 0.158156 0.471731
vt 0.080294 0.419706
vt 0.028269 0.341844
vt 0.010000 0.250000
vt 0.028269 0.158156
vt 0.080294 0.080294
vt 0.158156 0.028269
vt 0.250000 0.010000
vt 0.341844 0.028269
vt 0.419706 0.080294
vt 0.471731 0.158156
vt 0.490000 0.250000
vt 0.471731 0.341844
vt 0.419706 0.419706
vt 0.062500 1.000000
vt 0.062500 0.851854
vt 0.000000 1.000000
vt 0.000000 0.851854
vt 0.750000 0.490000
vt 0.841844 0.471731
vt 0.919706 0.419706
vt 0.971731 0.341844
vt 0.990000 0.250000
vt 0.971731 0.158156
vt 0.919706 0.080294
vt 0.841844 0.028269
vt 0.750000 0.010000
vt 0.658156 0.028269
vt 0.580294 0.080294
vt 0.528269 0.158156
vt 0.510000 0.250000
vt 0.528269 0.341844
vt 0.580294 0.419706
vt 0.658156 0.471731
vt 0.062500 0.500000
vt 0.062500 0.825322
vt 0.000000 0.825322
vt 0.000000 0.500000
vt 0.125000 0.500000
vt 0.125000 0.825322
vt 0.187500 0.500000
vt 0.187500 0.825322
vt 0.250000 0.500000
vt 0.250000 0.825322
vt 0.312500 0.500000
vt 0.312500 0.825322
vt 0.375000 0.500000
vt 0.375000 0.825322
vt 0.437500 0.500000
vt 0.437500 0.825322
vt 0.500000 0.500000
vt 0.500000 0.825322
vt 0.562500 0.500000
vt 0.562500 0.825322
vt 0.625000 0.500000
vt 0.625000 0.825322
vt 0.687500 0.500000
vt 0.687500 0.825322
vt 0.750000 0.500000
vt 0.750000 0.825322
vt 0.812500 0.500000
vt 0.812500 0.825322
vt 0.875000 0.500000
vt 0.875000 0.825322
vt 0.937500 0.500000
vt 0.937500 0.825322
vt 1.000000 0.500000
vt 1.000000 0.825322
vt 0.000000 0.000000
vt 0.000000 0.000000
vt 0.000000 0.000000
vt 0.000000 0.000000
vt 0.000000 0.000000
vt 0.000000 0.000000
vt 0.000000 0.000000
vt 0.000000 0.000000
vt 0.000000 0.000000
vt 0.000000 0.000000
vt 0.000000 0.000000
vt 0.000000 0.000000
vt 0.000000 0.000000
vt 0.000000 0.000000
vt 0.000000 0.000000
vt 0.000000 0.000000
vt 0.000000 0.000000
vt 0.000000 0.000000
vt 0.000000 0.000000
vt 0.000000 0.000000
vt 0.000000 0.000000
vt 0.000000 0.000000
vt 0.000000 0.000000
vt 0.000000 0.000000
vt 0.000000 0.000000
vt 0.000000 0.000000
vt 0.000000 0.000000
vt 0.000000 0.000000
vt 0.000000 0.000000
vt 0.000000 0.000000
vt 0.000000 0.000000
vt 0.000000 0.000000
vt 0.000000 0.000000
vt 0.000000 0.000000
vt 0.000000 0.000000
vt 0.000000 0.000000
vt 0.000000 0.000000
vt 0.000000 0.000000
vt 0.000000 0.000000
vt 0.000000 0.000000
vt 0.000000 0.000000
vt 0.000000 0.000000
vt 0.000000 0.000000
vt 0.000000 0.000000
vt 0.000000 0.000000
vt 0.000000 0.000000
vt 0.000000 0.000000
vt 0.000000 0.000000
vt 0.000000 0.000000
vt 0.000000 0.000000
vt 0.000000 0.000000
vt 0.000000 0.000000
vn 0.1950 0.0299 -0.9803
vn 0.5553 0.0333 -0.8310
vn 0.8309 0.0360 -0.5552
vn 0.9801 0.0374 -0.1950
vn 0.9801 0.0374 0.1950
vn 0.8309 0.0360 0.5552
vn 0.5553 0.0333 0.8310
vn 0.1950 0.0299 0.9803
vn -0.1950 0.0262 0.9804
vn -0.5554 0.0227 0.8313
vn -0.8313 0.0201 0.5555
vn -0.9806 0.0187 0.1951
vn -0.9806 0.0187 -0.1951
vn -0.8313 0.0201 -0.5555
vn 0.0000 1.0000 0.0000
vn -0.5554 0.0227 -0.8313
vn -0.1950 0.0262 -0.9804
vn 0.0000 -1.0000 -0.0000
vn -0.1951 0.0067 -0.9808
vn -0.5556 0.0082 -0.8314
vn -0.8314 0.0095 -0.5555
vn -0.9807 0.0101 -0.1951
vn -0.9807 0.0101 0.1951
vn -0.8314 0.0095 0.5555
vn -0.5556 0.0082 0.8314
vn -0.1951 0.0067 0.9808
vn 0.1951 0.0049 0.9808
vn 0.5556 0.0033 0.8315
vn 0.8315 0.0021 0.5556
vn 0.9808 0.0014 0.1951
vn 0.9808 0.0014 -0.1951
vn 0.8315 0.0021 -0.5556
vn 0.5556 0.0033 -0.8315
vn 0.1951 0.0049 -0.9808
vn -0.1951 0.0098 -0.9807
vn -0.5555 0.0098 -0.8314
vn -0.8314 0.0098 -0.5555
vn -0.9807 0.0098 -0.1951
vn -0.9807 0.0098 0.1951
vn -0.8314 0.0098 0.5555
vn -0.5555 0.0098 0.8314
vn -0.1951 0.0098 0.9807
vn 0.1951 0.0098 0.9807
vn 0.5555 0.0098 0.8314
vn 0.5555 0.0098 -0.8314
vn 0.1951 0.0098 -0.9807
vn -0.0531 0.9623 -0.2669
vn -0.0531 0.9623 0.2669
vn 0.0490 0.9680 0.2461
vn -0.3210 -0.9449 0.0639
vn 0.0490 0.9680 -0.2461
vn -0.1639 0.9555 0.2453
vn -0.3210 -0.9449 -0.0639
vn 0.1052 0.9750 -0.1957
vn -0.2621 0.9490 0.1751
vn -0.2621 -0.9490 -0.1752
vn -0.3210 0.9449 0.0639
vn 0.9807 0.0098 0.1951
vn 0.9807 0.0098 -0.1951
vn 0.5556 0.0000 0.8315
vn -0.4311 0.0000 0.9023
vn 0.8315 0.0000 -0.5556
vn 0.8315 0.0000 0.5556
vn -0.1951 0.0000 -0.9808
vn -0.1951 0.0000 0.9808
vn 0.5556 0.0000 -0.8315
vn 0.9808 0.0000 0.1951
vn -0.4311 0.0000 -0.9023
vn 0.1951 0.0000 0.9808
vn 0.1951 0.0000 -0.9808
vn 0.9808 0.0000 -0.1951
vn -0.2621 -0.9490 0.1752
vn 0.1052 0.9750 0.1957
vn 0.1052 -0.9750 -0.1958
vn -0.1639 0.9555 -0.2453
vn -0.1639 -0.9555 0.2454
vn 0.1052 -0.9750 0.1958
vn 0.0490 -0.9680 -0.2461
vn -0.2621 0.9490 -0.1751
vn -0.0531 -0.9622 0.2670
vn 0.0490 -0.9680 0.2461
vn -0.0531 -0.9622 -0.2670
vn -0.3210 0.9449 -0.0639
vn -0.1639 -0.9555 -0.2454
vn -0.4063 0.0020 -0.9137
vn 0.2374 -0.0010 0.9714
vn 0.2741 0.9477 -0.1634
vn 0.2783 -0.9455 -0.1690
vn -0.4063 0.0020 0.9137
vn 0.2374 -0.0010 -0.9714
vn 0.2741 0.9477 0.1634
vn 0.2783 -0.9455 0.1690
vn -0.5556 0.0000 -0.8315
vn -0.8315 0.0000 -0.5556
vn -0.9808 0.0000 -0.1951
vn -0.9808 0.0000 0.1951
vn -0.8315 0.0000 0.5556
vn -0.5556 0.0000 0.8315
usemtl None
s off
f 49/1/1 2/2/1 4/3/1 50/4/1
f 50/4/2 4/3/2 6/5/2 51/6/2
f 51/6/3 6/5/3 8/7/3 52/8/3
f 52/8/4 8/7/4 10/9/4 53/10/4
f 53/10/5 10/9/5 12/11/5 54/12/5
f 54/12/6 12/11/6 14/13/6 55/14/6
f 55/14/7 14/13/7 16/15/7 56/16/7
f 56/16/8 16/15/8 18/17/8 57/18/8
f 57/18/9 18/17/9 20/19/9 58/20/9
f 58/20/10 20/19/10 22/21/10 59/22/10
f 59/22/11 22/21/11 24/23/11 60/24/11
f 60/24/12 24/23/12 26/25/12 61/26/12
f 61/26/13 26/25/13 28/27/13 62/28/13
f 62/28/14 28/27/14 30/29/14 63/30/14
f 4/31/15 2/32/15 32/33/15 30/34/15 28/35/15 26/36/15 24/37/15 22/38/15 20/39/15 18/40/15 16/41/15 14/42/15 12/43/15 10/44/15 8/45/15 6/46/15
f 63/30/16 30/29/16 32/47/16 64/48/16
f 64/48/17 32/47/17 2/49/17 49/50/17
f 1/51/18 3/52/18 5/53/18 7/54/18 9/55/18 11/56/18 13/57/18 15/58/18 17/59/18 19/60/18 21/61/18 23/62/18 25/63/18 27/64/18 29/65/18 31/66/18
f 31/67/19 48/68/19 33/69/19 1/70/19
f 29/71/20 47/72/20 48/68/20 31/67/20
f 27/73/21 46/74/21 47/72/21 29/71/21
f 25/75/22 45/76/22 46/74/22 27/73/22
f 23/77/23 44/78/23 45/76/23 25/75/23
f 21/79/24 43/80/24 44/78/24 23/77/24
f 19/81/25 42/82/25 43/80/25 21/79/25
f 17/83/26 41/84/26 42/82/26 19/81/26
f 15/85/27 40/86/27 41/84/27 17/83/27
f 13/87/28 39/88/28 40/86/28 15/85/28
f 11/89/29 38/90/29 39/88/29 13/87/29
f 9/91/30 37/92/30 38/90/30 11/89/30
f 7/93/31 36/94/31 37/92/31 9/91/31
f 5/95/32 35/96/32 36/94/32 7/93/32
f 3/97/33 34/98/33 35/96/33 5/95/33
f 1/99/34 33/100/34 34/98/34 3/97/34
f 48/68/35 64/48/35 49/50/35 33/69/35
f 47/72/36 63/30/36 64/48/36 48/68/36
f 46/74/37 62/28/37 63/30/37 47/72/37
f 45/76/38 61/26/38 62/28/38 46/74/38
f 44/78/39 60/24/39 61/26/39 45/76/39
f 43/80/40 59/22/40 60/24/40 44/78/40
f 42/82/41 58/20/41 59/22/41 43/80/41
f 41/84/42 57/18/42 58/20/42 42/82/42
f 40/86/43 56/16/43 57/18/43 41/84/43
f 39/88/44 55/14/44 56/16/44 40/86/44
f 34/98/45 50/4/45 51/6/45 35/96/45
f 33/100/46 49/1/46 50/4/46 34/98/46
f 74/101/47 73/102/47 99/103/47 100/104/47
f 65/105/48 80/106/48 106/107/48 91/108/48
f 66/109/49 65/105/49 91/108/49 92/110/49
f 87/111/50 88/112/50 114/113/50 113/114/50
f 73/102/51 72/115/51 98/116/51 99/103/51
f 80/106/52 79/117/52 105/118/52 106/107/52
f 86/119/53 87/111/53 113/114/53 112/120/53
f 72/115/54 71/121/54 97/122/54 98/116/54
f 79/117/55 78/123/55 104/124/55 105/118/55
f 85/125/56 86/119/56 112/120/56 111/126/56
f 78/123/57 77/127/57 103/128/57 104/124/57
f 38/90/58 37/92/58 53/10/58 54/12/58
f 37/92/59 36/94/59 52/8/59 53/10/59
f 101/129/60 100/104/60 110/130/60 111/126/60
f 98/116/61 97/122/61 107/131/61 108/132/61
f 105/118/62 104/124/62 114/113/62 115/133/62
f 102/134/63 101/129/63 111/126/63 112/120/63
f 92/110/64 91/108/64 96/135/64 95/136/64
f 99/103/65 98/116/65 108/132/65 109/137/65
f 106/107/66 105/118/66 115/133/66 116/138/66
f 103/128/67 102/134/67 112/120/67 113/114/67
f 93/139/68 92/110/68 95/136/68 94/140/68
f 100/104/69 99/103/69 109/137/69 110/130/69
f 91/108/70 106/107/70 116/138/70 96/135/70
f 104/124/71 103/128/71 113/114/71 114/113/71
f 88/112/72 89/141/72 115/133/72 114/113/72
f 67/142/73 66/109/73 92/110/73 93/139/73
f 81/143/74 82/144/74 108/132/74 107/131/74
f 75/145/75 74/101/75 100/104/75 101/129/75
f 89/141/76 90/146/76 116/138/76 115/133/76
f 69/147/77 68/148/77 94/140/77 95/136/77
f 82/144/78 83/149/78 109/137/78 108/132/78
f 76/150/79 75/145/79 101/129/79 102/134/79
f 90/146/80 70/151/80 96/135/80 116/138/80
f 70/151/81 69/147/81 95/136/81 96/135/81
f 83/149/82 84/152/82 110/130/82 109/137/82
f 77/127/83 76/150/83 102/134/83 103/128/83
f 84/152/84 85/125/84 111/126/84 110/130/84
f 51/6/85 93/139/85 94/140/85 35/96/85
f 52/8/86 36/94/86 68/148/86 67/142/86
f 51/6/87 52/8/87 67/142/87 93/139/87
f 36/94/88 35/96/88 94/140/88 68/148/88
f 39/88/89 107/131/89 97/122/89 55/14/89
f 71/121/66 72/115/66 82/144/66 81/143/66
f 38/90/90 54/12/90 71/121/90 81/143/90
f 54/12/91 55/14/91 97/122/91 71/121/91
f 39/88/92 38/90/92 81/143/92 107/131/92
f 72/115/70 73/102/70 83/149/70 82/144/70
f 73/102/64 74/101/64 84/152/64 83/149/64
f 74/101/93 75/145/93 85/125/93 84/152/93
f 75/145/94 76/150/94 86/119/94 85/125/94
f 76/150/95 77/127/95 87/111/95 86/119/95
f 77/127/96 78/123/96 88/112/96 87/111/96
f 78/123/97 79/117/97 89/141/97 88/112/97
f 79/117/98 80/106/98 90/146/98 89/141/98
f 80/106/65 65/105/65 70/151/65 90/146/65
f 65/105/69 66/109/69 69/147/69 70/151/69
f 66/109/60 67/142/60 68/148/60 69/147/60
