# Blender v2.83.0 OBJ File: ''
# www.blender.org
mtllib ReelArm.mtl
o Sphere.002_Sphere.004
v 3.205025 9.457575 0.545250
v 3.000000 9.457575 0.586032
v 2.794975 9.457575 0.545250
v 3.205025 9.877574 0.545250
v 3.000000 9.877574 0.586032
v 2.794975 9.877574 0.545250
v 3.205024 11.017793 1.975436
v 3.205024 10.720809 2.272420
v 2.794973 11.017793 1.975436
v 2.794973 10.720809 2.272420
v 2.999998 10.749645 2.301258
v 2.999998 11.046629 2.004274
v 3.205023 12.280802 2.383937
v 3.205023 12.070802 2.747667
v 2.794973 12.280802 2.383937
v 2.794973 12.070802 2.747667
v 2.999998 12.106121 2.768059
v 2.999998 12.316120 2.404328
v 3.205023 12.943877 4.018661
v 3.205023 11.767879 4.018662
v 2.794973 12.943877 4.018661
v 2.794973 11.767879 4.018662
v 2.999998 11.767877 4.059445
v 2.999998 12.943877 4.059444
vt 0.250000 0.125000
vt 0.187500 0.125000
vt 0.187500 0.125000
vt 0.250000 0.125000
vt 0.187500 0.125000
vt 0.187500 0.125000
vt 0.312500 0.125000
vt 0.312500 0.125000
vt 0.312500 0.125000
vt 0.312500 0.125000
vt 0.250000 0.125000
vt 0.250000 0.125000
vt 0.250000 0.125000
vt 0.312500 0.125000
vt 0.312500 0.125000
vt 0.187500 0.125000
vt 0.187500 0.125000
vt 0.187500 0.125000
vt 0.187500 0.125000
vt 0.250000 0.125000
vt 0.250000 0.125000
vt 0.312500 0.125000
vt 0.250000 0.125000
vt 0.312500 0.125000
vn 0.0522 0.7757 -0.6289
vn -1.0000 0.0000 -0.0000
vn 1.0000 0.0000 0.0000
vn 0.0618 -0.3281 0.9426
vn 0.0447 -0.8022 0.5954
vn -0.0447 -0.8022 0.5954
vn -0.0522 0.7757 -0.6289
vn 0.1189 -0.9632 -0.2410
vn 0.0666 0.3035 -0.9505
vn -0.0618 -0.3281 0.9426
vn -0.0666 0.3035 -0.9505
vn 0.1951 0.0000 0.9808
vn -0.1951 0.0000 0.9808
vn 0.0257 0.9306 -0.3651
vn -0.1189 -0.9632 -0.2410
vn -0.0257 0.9306 -0.3651
vn 0.0000 0.0000 -1.0000
usemtl None
s off
f 5/1/1 6/2/1 9/3/1 12/4/1
f 6/2/2 3/5/2 10/6/2 9/3/2
f 8/7/3 7/8/3 13/9/3 14/10/3
f 11/11/4 8/7/4 14/10/4 17/12/4
f 2/13/5 1/14/5 8/7/5 11/11/5
f 1/14/3 4/15/3 7/8/3 8/7/3
f 3/5/6 2/13/6 11/11/6 10/6/6
f 4/15/7 5/1/7 12/4/7 7/8/7
f 15/16/2 16/17/2 22/18/2 21/19/2
f 16/17/8 17/12/8 23/20/8 22/18/8
f 12/4/9 9/3/9 15/16/9 18/21/9
f 10/6/10 11/11/10 17/12/10 16/17/10
f 9/3/2 10/6/2 16/17/2 15/16/2
f 7/8/11 12/4/11 18/21/11 13/9/11
f 19/22/12 24/23/12 23/20/12 20/24/12
f 24/23/13 21/19/13 22/18/13 23/20/13
f 13/9/14 18/21/14 24/23/14 19/22/14
f 17/12/15 14/10/15 20/24/15 23/20/15
f 14/10/3 13/9/3 19/22/3 20/24/3
f 18/21/16 15/16/16 21/19/16 24/23/16
f 1/14/17 2/13/17 3/5/17 6/2/17 5/1/17 4/15/17
